<?xml version="1.0" encoding="UTF-8" standalone="no"?><!DOCTYPE svg PUBLIC "-//W3C//DTD SVG 1.1//EN" "http://www.w3.org/Graphics/SVG/1.1/DTD/svg11.dtd"><svg width="100%" height="100%" viewBox="0 0 3267 3750" version="1.1" xmlns="http://www.w3.org/2000/svg" xmlns:xlink="http://www.w3.org/1999/xlink" xml:space="preserve" xmlns:serif="http://www.serif.com/" style="fill-rule:evenodd;clip-rule:evenodd;stroke-linejoin:round;stroke-miterlimit:2;"><rect id="fks-logo" serif:id="fks logo" x="0" y="0" width="3263.33" height="3750" style="fill:none;"/><clipPath id="_clip1"><rect id="fks-logo1" serif:id="fks logo" x="0" y="0" width="3263.33" height="3750"/></clipPath><g clip-path="url(#_clip1)"><g><text x="216.874px" y="3468.48px" style="font-family:'Menlo-Regular', 'Menlo', monospace;font-size:5369.2px;fill:url(#_Linear2);">⌘</text><path d="M937.653,3043.88l-196.199,706.125l1801.06,-718.957l-1151.15,-1619.61l-199.45,717.352c-89.841,-39.374 -682.599,-313.362 -681.364,-687.837c1.336,-405.177 554.172,-738.896 554.172,-738.896c0,0 -1018.95,141.745 -1062.16,923.621c-52.988,958.736 756.036,1344.73 935.095,1418.2Z" style="fill:url(#_Linear3);"/><path d="M2104.48,2286.1l0,-311.98l-271.343,0l-0,-272.654l271.343,-0l0,-545.309l-542.687,-0l0,272.654l-272.654,0l-0,-272.654l-314.602,-0c-155.553,-0 -289.695,-56.803 -402.427,-170.409c-112.732,-113.606 -169.098,-249.933 -169.098,-408.982c-0,-159.048 56.366,-294.939 169.098,-407.671c112.732,-112.732 249.059,-169.098 408.981,-169.098c159.923,-0 296.687,55.929 410.293,167.787c113.606,111.859 170.409,246.438 170.409,403.739l0,311.979l542.687,0l0,-311.979c0,-157.301 56.803,-291.88 170.409,-403.739c113.606,-111.858 250.808,-167.787 411.604,-167.787c160.796,-0 297.123,56.366 408.981,169.098c111.859,112.732 167.788,248.623 167.788,407.671c-0,159.049 -55.929,295.376 -167.788,408.982c-111.858,113.606 -246.437,170.409 -403.738,170.409l-314.601,-0l-0,545.309l314.601,-0c157.301,-0 291.88,56.803 403.738,170.409c111.859,113.606 167.788,249.059 167.788,406.36c-0,160.796 -55.929,297.56 -167.788,410.292c-111.858,112.733 -248.185,169.099 -408.981,169.099m-1397.35,-1974.12l-0,-306.736c-0,-83.894 -30.15,-155.99 -90.448,-216.288c-60.299,-60.299 -133.269,-90.448 -218.91,-90.448c-82.146,-0 -153.369,30.149 -213.667,90.448c-60.299,60.298 -90.448,132.394 -90.448,216.288c0,83.894 30.149,155.99 90.448,216.288c60.298,60.299 132.395,90.448 216.288,90.448l306.737,0Zm1088,1090.62l-0,306.737c-0,83.893 30.149,155.989 90.448,216.288c60.298,60.299 132.831,90.448 217.599,90.448c84.767,-0 156.864,-30.149 216.288,-90.448c59.425,-60.299 89.137,-133.269 89.137,-218.91c0,-82.146 -30.149,-153.368 -90.448,-213.667c-60.298,-60.298 -131.52,-90.448 -213.666,-90.448l-309.358,0Zm-0,-1090.62l309.358,0c82.146,0 153.368,-30.149 213.666,-90.448c60.299,-60.298 90.448,-132.394 90.448,-216.288c0,-83.894 -29.712,-155.99 -89.137,-216.288c-59.424,-60.299 -131.521,-90.448 -216.288,-90.448c-84.768,-0 -157.301,30.149 -217.599,90.448c-60.299,60.298 -90.448,132.394 -90.448,216.288l-0,306.736Z" style="fill:url(#_Linear4);fill-rule:nonzero;"/></g></g><defs><linearGradient id="_Linear2" x1="0" y1="0" x2="1" y2="0" gradientUnits="userSpaceOnUse" gradientTransform="matrix(-2457.4,-2999.58,2999.58,-2457.4,3082.73,2680.51)"><stop offset="0" style="stop-color:#066c48;stop-opacity:1"/><stop offset="0.58" style="stop-color:#07774f;stop-opacity:1"/><stop offset="0.8" style="stop-color:#098e5f;stop-opacity:1"/><stop offset="1" style="stop-color:#0aa56e;stop-opacity:1"/></linearGradient><linearGradient id="_Linear3" x1="0" y1="0" x2="1" y2="0" gradientUnits="userSpaceOnUse" gradientTransform="matrix(-2232.88,-2265.43,2265.43,-2232.88,2232.95,3170.38)"><stop offset="0" style="stop-color:#0bb376;stop-opacity:1"/><stop offset="0.65" style="stop-color:#0bb376;stop-opacity:1"/><stop offset="1" style="stop-color:#0bb376;stop-opacity:0.56"/></linearGradient><linearGradient id="_Linear4" x1="0" y1="0" x2="1" y2="0" gradientUnits="userSpaceOnUse" gradientTransform="matrix(-2457.4,-2999.58,2999.58,-2457.4,3082.73,2680.51)"><stop offset="0" style="stop-color:#066c48;stop-opacity:1"/><stop offset="0.58" style="stop-color:#07774f;stop-opacity:1"/><stop offset="0.8" style="stop-color:#098e5f;stop-opacity:1"/><stop offset="1" style="stop-color:#0aa56e;stop-opacity:1"/></linearGradient></defs></svg>